<svg xmlns="http://www.w3.org/2000/svg" xmlns:xlink="http://www.w3.org/1999/xlink" width="38" height="38" viewBox="0 0 38 38">
  <defs>
    <clipPath id="clip-path">
      <rect id="Rectangle_369" data-name="Rectangle 369" width="18" height="18" transform="translate(2840.127 -587.873)" fill="#4ad991" stroke="#4ad991" stroke-width="1"/>
    </clipPath>
  </defs>
  <g id="Group_330" data-name="Group 330" transform="translate(-1847 -232)">
    <g id="Icon" transform="translate(617 -457)">
      <g id="Ellipse" transform="translate(1230 689)" fill="rgba(255,255,255,0)">
        <path d="M 19 37.5 C 16.50230026245117 37.5 14.07956981658936 37.01092910766602 11.79911994934082 36.04637908935547 C 9.596209526062012 35.11463165283203 7.617690086364746 33.7806396484375 5.918519973754883 32.08147811889648 C 4.219359874725342 30.38231086730957 2.885370016098022 28.40378952026367 1.953619956970215 26.20088005065918 C 0.9890699982643127 23.92042922973633 0.5 21.49769973754883 0.5 19 C 0.5 16.50230026245117 0.9890699982643127 14.07956981658936 1.953619956970215 11.79911994934082 C 2.885370016098022 9.596209526062012 4.219359874725342 7.617690086364746 5.918519973754883 5.918519973754883 C 7.617690086364746 4.219359874725342 9.596209526062012 2.885370016098022 11.79911994934082 1.953619956970215 C 14.07956981658936 0.9890699982643127 16.50230026245117 0.5 19 0.5 C 21.49769973754883 0.5 23.92042922973633 0.9890699982643127 26.20088005065918 1.953619956970215 C 28.40378952026367 2.885370016098022 30.38231086730957 4.219359874725342 32.08147811889648 5.918519973754883 C 33.7806396484375 7.617690086364746 35.11463165283203 9.596209526062012 36.04637908935547 11.79911994934082 C 37.01092910766602 14.07956981658936 37.5 16.50230026245117 37.5 19 C 37.5 21.49769973754883 37.01092910766602 23.92042922973633 36.04637908935547 26.20088005065918 C 35.11463165283203 28.40378952026367 33.7806396484375 30.38231086730957 32.08147811889648 32.08147811889648 C 30.38231086730957 33.7806396484375 28.40378952026367 35.11463165283203 26.20088005065918 36.04637908935547 C 23.92042922973633 37.01092910766602 21.49769973754883 37.5 19 37.5 Z" stroke="none"/>
        <path d="M 19 1 C 14.19202995300293 1 9.671829223632812 2.872329711914062 6.272079467773438 6.272079467773438 C 2.872329711914062 9.671829223632812 1 14.19202995300293 1 19 C 1 23.80797004699707 2.872329711914062 28.32817077636719 6.272079467773438 31.72792053222656 C 9.671829223632812 35.12767028808594 14.19202995300293 37 19 37 C 23.80797004699707 37 28.32817077636719 35.12767028808594 31.72792053222656 31.72792053222656 C 35.12767028808594 28.32817077636719 37 23.80797004699707 37 19 C 37 14.19202995300293 35.12767028808594 9.671829223632812 31.72792053222656 6.272079467773438 C 28.32817077636719 2.872329711914062 23.80797004699707 1 19 1 M 19 0 C 29.49341011047363 0 38 8.506589889526367 38 19 C 38 29.49341011047363 29.49341011047363 38 19 38 C 8.506589889526367 38 0 29.49341011047363 0 19 C 0 8.506589889526367 8.506589889526367 0 19 0 Z" stroke="none" fill="#f64b4b"/>
      </g>
      <g id="Group_10752" data-name="Group 10752" transform="translate(977.547 1.547)">
        <g id="Rectangle_2371" data-name="Rectangle 2371" transform="translate(263.453 698.453)" fill="#4ad991" stroke="#707070" stroke-width="1" opacity="0">
          <rect width="16" height="16" stroke="none"/>
          <rect x="0.5" y="0.5" width="15" height="15" fill="none"/>
        </g>
        <g id="Mask_Group_27" data-name="Mask Group 27" transform="translate(-2577.675 1285.325)" clip-path="url(#clip-path)">
          <g id="Group_327" data-name="Group 327" transform="translate(2840.671 -587.432)">
            <path id="Path_1942" data-name="Path 1942" d="M870.13-38.958c-1.028,0-1.872-.006-2.656-.019a1.643,1.643,0,0,1-1.276-.657,1.887,1.887,0,0,1-.33-1.593,8.583,8.583,0,0,1,5.513-6.257c.044-.017.082-.035.131-.059l.083-.04.4-.186-.343-.275a4.527,4.527,0,0,1-1.585-2.342,4.292,4.292,0,0,1,.557-3.533,4.288,4.288,0,0,1,3.006-1.932,4.839,4.839,0,0,1,.645-.044,4.348,4.348,0,0,1,4.334,3.714,4.305,4.305,0,0,1-.825,3.248,4.238,4.238,0,0,1-2.823,1.7c-.285.037-.582.062-.868.086a9.7,9.7,0,0,0-1.866.28,7.594,7.594,0,0,0-5.542,5.752,1.042,1.042,0,0,0,.137.942,1.111,1.111,0,0,0,.938.386h3.6l2.375,0a.514.514,0,0,1,.443.208.361.361,0,0,1,.014.356.378.378,0,0,1-.369.251q-.852,0-1.7,0Q871.124-38.959,870.13-38.958Zm4.149-16.135a3.556,3.556,0,0,0-3.547,3.555,3.556,3.556,0,0,0,3.548,3.553,3.519,3.519,0,0,0,2.507-1.041,3.527,3.527,0,0,0,1.04-2.513A3.558,3.558,0,0,0,874.279-55.093Z" transform="translate(-865.813 55.895)" fill="#f64b4b" stroke="#f64b4b" stroke-width="0.5"/>
            <g id="Path_1945" data-name="Path 1945" transform="translate(8.964 9.067)" fill="none">
              <path d="M3.6,0A3.6,3.6,0,1,1,0,3.6,3.6,3.6,0,0,1,3.6,0Z" stroke="none"/>
              <path d="M 3.599999904632568 0.9000000953674316 C 2.111209869384766 0.9000000953674316 0.9000000953674316 2.111209869384766 0.9000000953674316 3.599999904632568 C 0.9000000953674316 5.088789939880371 2.111209869384766 6.299999713897705 3.599999904632568 6.299999713897705 C 5.088789939880371 6.299999713897705 6.299999713897705 5.088789939880371 6.299999713897705 3.599999904632568 C 6.299999713897705 2.111209869384766 5.088789939880371 0.9000000953674316 3.599999904632568 0.9000000953674316 M 3.599999904632568 0 C 5.58821964263916 0 7.199999809265137 1.611769676208496 7.199999809265137 3.599999904632568 C 7.199999809265137 5.58821964263916 5.58821964263916 7.199999809265137 3.599999904632568 7.199999809265137 C 1.611769676208496 7.199999809265137 0 5.58821964263916 0 3.599999904632568 C 0 1.611769676208496 1.611769676208496 0 3.599999904632568 0 Z" stroke="none" fill="#f64b4b"/>
            </g>
            <path id="Icon_awesome-exclamation" data-name="Icon awesome-exclamation" d="M2.486,3.675a.68.68,0,1,1-.68-.68A.681.681,0,0,1,2.486,3.675ZM1.2.214l.116,2.314a.2.2,0,0,0,.2.194h.564a.2.2,0,0,0,.2-.194L2.407.214A.2.2,0,0,0,2.2,0h-.8A.2.2,0,0,0,1.2.214Z" transform="translate(10.758 10.49)" fill="#f64b4b"/>
          </g>
        </g>
      </g>
    </g>
  </g>
</svg>
